HIERARCHY
ROOT Hips
{
  OFFSET 263.056 91.6644 -274.608
  CHANNELS 6 Xposition Yposition Zposition Zrotation Xrotation Yrotation
  JOINT LeftUpLeg
  {
    OFFSET 8.64259 1.95398 -2.38835
    CHANNELS 3 Zrotation Xrotation Yrotation
    JOINT LeftLeg
    {
      OFFSET 43.7702 0 0
      CHANNELS 3 Zrotation Xrotation Yrotation
      JOINT LeftFoot
      {
        OFFSET 40.6238 0 0
        CHANNELS 3 Zrotation Xrotation Yrotation
        JOINT LeftToeBase
        {
          OFFSET 12.7242 0 0
          CHANNELS 3 Zrotation Xrotation Yrotation
          End Site
          {
            OFFSET 0 0 0
          }
        }
      }
    }
  }
  JOINT RightUpLeg
  {
    OFFSET -8.2249 1.95398 -2.59336
    CHANNELS 3 Zrotation Xrotation Yrotation
    JOINT RightLeg
    {
      OFFSET 43.5653 0 0
      CHANNELS 3 Zrotation Xrotation Yrotation
      JOINT RightFoot
      {
        OFFSET 40.6238 0 0
        CHANNELS 3 Zrotation Xrotation Yrotation
        JOINT RightToeBase
        {
          OFFSET 12.7242 0 0
          CHANNELS 3 Zrotation Xrotation Yrotation
          End Site
          {
            OFFSET 0 0 0
          }
        }
      }
    }
  }
  JOINT Spine
  {
    OFFSET 0.165834 0.87714 6.61349
    CHANNELS 3 Zrotation Xrotation Yrotation
    JOINT Spine1
    {
      OFFSET 7.38963 1.71661e-005 0
      CHANNELS 3 Zrotation Xrotation Yrotation
      JOINT Spine2
      {
        OFFSET 11.9445 1.14441e-005 0
        CHANNELS 3 Zrotation Xrotation Yrotation
        JOINT Spine3
        {
          OFFSET 14.7254 4.19617e-005 0
          CHANNELS 3 Zrotation Xrotation Yrotation
          JOINT Spine4
          {
            OFFSET 10.9679 0 0
            CHANNELS 3 Zrotation Xrotation Yrotation
            JOINT RightShoulder
            {
              OFFSET 2.46616 -1.6653 3.69651
              CHANNELS 3 Zrotation Xrotation Yrotation
              JOINT RightArm
              {
                OFFSET 13.0012 0 0
                CHANNELS 3 Zrotation Xrotation Yrotation
                JOINT RightForeArm
                {
                  OFFSET 28.7848 1.52588e-005 0
                  CHANNELS 3 Zrotation Xrotation Yrotation
                  JOINT RightHand
                  {
                    OFFSET 26.5688 1.52588e-005 0
                    CHANNELS 3 Zrotation Xrotation Yrotation
                    End Site
                    {
                      OFFSET 0 0 0
                    }
                  }
                }
              }
            }
            JOINT LeftShoulder
            {
              OFFSET 2.38034 -1.29275 -3.7523
              CHANNELS 3 Zrotation Xrotation Yrotation
              JOINT LeftArm
              {
                OFFSET 16.3182 6.10352e-005 0
                CHANNELS 3 Zrotation Xrotation Yrotation
                JOINT LeftForeArm
                {
                  OFFSET 27.0901 0 0
                  CHANNELS 3 Zrotation Xrotation Yrotation
                  JOINT LeftHand
                  {
                    OFFSET 24.5451 1.52588e-005 0
                    CHANNELS 3 Zrotation Xrotation Yrotation
                    End Site
                    {
                      OFFSET 0 0 0
                    }
                  }
                }
              }
            }
            JOINT Neck
            {
              OFFSET 5.0226 -0.0266342 0
              CHANNELS 3 Zrotation Xrotation Yrotation
              JOINT Head
              {
                OFFSET 6.69364 2.86102e-005 0
                CHANNELS 3 Zrotation Xrotation Yrotation
                End Site
                {
                  OFFSET 0 0 0
                }
              }
            }
          }
        }
      }
    }
  }
}
MOTION
Frames:	14
Frame Time:	0.0416667
45.6705 94.1907 -300.472 26.2617 -87.9758 26.9394 -172.791 -5.07589 87.2372 -14.3022 17.8885 -1.08335 63.4241 16.0672 23.9885 46.9194 18.5802 -6.47894 179.836 27.7519 91.4025 -15.4093 11.3451 1.36673 62.602 -1.67379 -0.926284 42.0859 1.16636 6.43816 -0.608317 7.81855 -90.109 11.2368 -1.26133 -0.0926215 -0.4335 -1.26419 -0.0370157 -22.973 -1.17517 -0.467466 -2.9604 -1.17518 -0.467487 80.1047 -53.568 -114.366 27.2467 -6.35709 12.7734 -9.25379 -19.6565 -35.0075 -20.1047 0.663903 -9.10682 -103.092 -43.0937 56.5398 -26.9304 10.7588 0.688837 6.76041 8.12269 -42.7719 11.645 0.880905 3.5195 3.709 1.04706 1.76569 7.8142 0.834368 1.13925 
45.5572 93.7476 -297.937 21.295 -87.6088 21.7485 -172.909 -6.96256 87.1183 -12.9643 17.8706 -0.867891 62.7731 16.1215 24.2402 48.8543 20.1637 -7.69688 -179.867 28.6195 91.2291 -14.0855 12.3136 1.24049 63.7817 -1.76207 -0.973587 42.115 1.27369 8.33355 -0.625529 7.82935 -90.1084 11.2153 -1.29532 -0.0884211 -0.455035 -1.29796 -0.0313225 -22.9948 -1.20886 -0.473691 -2.98219 -1.20885 -0.473684 79.9052 -53.8686 -114.538 26.7954 -6.81169 12.7373 -8.03964 -17.866 -34.8062 -13.9559 -0.514277 -0.922356 -103.009 -43.0153 56.6302 -26.5631 10.944 0.252273 6.87687 8.25519 -42.9943 11.4993 0.882984 3.61337 4.08084 1.19431 1.34212 7.82127 1.09231 1.60801 
45.5126 93.5211 -295.188 29.5457 -86.5342 30.1934 -172.665 -7.10047 87.8745 -14.2429 19.376 -0.722419 61.9164 13.5884 22.4072 51.0273 22.5784 -6.35642 -179.591 28.9945 91.06 -12.6572 12.7023 1.05869 63.8837 -1.79908 -0.992876 41.5592 1.21236 8.60321 -0.709069 7.76391 -90.1792 11.3455 -1.49449 -0.207202 -0.324626 -1.50216 -0.141224 -22.8656 -1.36311 -0.646851 -2.85293 -1.36311 -0.646863 80.1004 -54.159 -114.154 26.4538 -7.09434 13.1721 -7.75326 -16.4413 -35.237 -6.29328 -0.681253 6.16601 -103.099 -42.9414 56.4587 -26.5796 10.9986 0.298806 7.72812 9.21438 -43.5899 11.6448 1.08046 5.13944 4.16051 1.11432 1.00494 7.96016 1.09503 1.81805 
45.3384 93.2714 -292.269 26.1896 -87.2841 26.1434 -172.849 -8.89202 87.5966 -15.352 18.7481 -0.531825 60.5522 9.06801 17.0525 52.1978 25.3681 -0.937803 -179.476 29.1947 90.8647 -15.3011 10.9016 0.56729 62.6534 -1.29754 -0.685743 42.3825 1.38089 9.58078 -0.685522 7.84312 -90.1014 11.1883 -1.41146 -0.0627649 -0.481898 -1.41286 -0.000572073 -23.0226 -1.32734 -0.48414 -3.01 -1.32734 -0.484139 79.3358 -55.0573 -114.898 25.5839 -6.86113 13.6331 -7.95738 -15.9986 -35.4691 -4.9143 -0.597533 7.4733 -102.692 -42.5692 56.9056 -26.8602 10.7532 0.168283 6.80972 8.26883 -42.5719 11.1007 0.824165 3.35153 4.72068 1.23939 0.482076 7.89876 1.33874 2.15764 
45.0528 93.1695 -288.97 29.0485 -87.0425 29.1322 -172.706 -9.50255 88.4407 -17.236 19.424 -0.184621 59.7511 6.88401 14.0684 52.4439 26.7 2.29245 179.94 30.1679 91.1753 -20.1328 10.4719 1.02192 60.7282 -0.817679 -0.397033 41.5617 1.12252 6.80191 -0.720453 7.84511 -90.1788 11.183 -1.51699 -0.207267 -0.487096 -1.52463 -0.140291 -23.0283 -1.38455 -0.653685 -3.01565 -1.38454 -0.653671 78.6844 -54.9175 -115.863 25.1715 -6.87804 14.3749 -7.08113 -15.2468 -35.7903 -6.38437 -0.705693 6.91628 -102.894 -42.6384 56.6286 -26.9847 10.4269 0.334454 6.86444 8.38796 -42.1536 10.8107 0.820554 3.50215 5.30843 1.36205 1.22448 7.75568 1.25674 1.55622 
44.9148 93.2894 -285.57 32.503 -86.4865 33.6516 -172.361 -9.16639 90.233 -19.9894 20.9125 0.240407 58.979 5.55978 12.6834 52.1772 27.1041 4.30826 179.558 30.3341 92.1212 -23.7103 10.441 1.37659 61.515 -1.16936 -0.615514 41.066 0.989849 5.20738 -0.773577 7.82469 -90.3391 11.2221 -1.69727 -0.507774 -0.447829 -1.71796 -0.432574 -22.9892 -1.46618 -0.99449 -2.97658 -1.46619 -0.99449 78.0276 -55.047 -116.731 24.6649 -6.42202 14.5915 -7.70176 -15.8071 -36.4646 -4.75938 -0.564907 6.91075 -103.146 -42.5006 56.1789 -27.3041 9.9731 0.824714 6.71677 8.57318 -41.0619 10.8529 0.813753 3.41599 5.67642 1.61852 1.46184 7.71877 1.45539 1.5306 
44.6544 93.3383 -282.066 31.4623 -86.7927 33.2034 -172.042 -8.75746 91.4249 -23.2602 21.294 0.342786 55.7615 2.15567 11.2343 54.7747 30.3031 4.98806 178.764 29.5674 92.7716 -26.6678 10.7246 2.12594 61.2996 -1.05452 -0.548564 41.4265 1.1007 6.8439 -0.805846 7.83441 -90.4467 11.1997 -1.81152 -0.711898 -0.470177 -1.8411 -0.631468 -23.0114 -1.51382 -1.2235 -2.99873 -1.51382 -1.2235 78.8611 -53.8562 -116.022 25.8323 -6.61348 13.9668 -6.90474 -14.9763 -36.0213 -6.21851 -0.725701 7.8143 -103.382 -42.6344 55.881 -27.7815 9.78165 1.603 6.09959 8.35506 -39.6067 10.8221 0.808363 3.38208 5.2893 2.09864 2.21174 8.07636 1.76864 1.2522 
44.347 93.3785 -278.5 42.7555 -84.3987 45.0447 -172.561 -4.76196 93.7416 -28.752 20.9323 0.95338 49.116 -5.43302 4.67196 58.3115 36.2916 8.99614 177.935 30.3244 92.9559 -30.4742 11.431 3.06977 63.6351 -1.34312 -0.723899 38.1634 0.726086 7.29397 -1.0719 7.63775 -90.5348 11.5915 -2.38254 -0.817076 -0.0774765 -2.41618 -0.711375 -22.6239 -2.02683 -1.49556 -2.61123 -2.02682 -1.49555 79.5863 -53.507 -115.128 26.5616 -7.07971 13.4283 -7.452 -15.8853 -36.3805 -5.60089 -0.676131 7.9826 -102.986 -42.4068 56.3793 -28.2642 10.1808 2.50074 5.42802 8.26396 -38.3835 10.3986 0.812738 3.68567 5.08401 2.4059 2.01115 7.44609 2.13409 1.56969 
43.698 93.4202 -274.955 25.1547 -86.2785 26.5791 -171.877 -3.3179 93.3665 -33.8432 19.8907 0.0408772 43.3028 -10.353 1.62723 48.1515 23.9096 9.21211 178.633 29.1144 93.6757 -33.8974 9.54939 1.84821 67.3421 -2.0531 -1.10206 34.0848 0.210291 7.14003 -0.834799 7.666 -90.4054 11.5376 -1.85036 -0.617794 -0.132184 -1.87576 -0.535749 -22.6744 -1.57915 -1.14545 -2.66172 -1.57914 -1.14545 79.8475 -53.2323 -114.859 26.8909 -7.50219 13.6012 -8.97742 -16.5663 -37.8341 -6.319 -0.738585 7.69282 -103.107 -42.5596 56.2665 -28.4973 10.3269 3.03967 4.83153 8.36533 -36.661 10.4354 0.689139 2.56825 4.78604 2.59938 2.58997 7.6584 2.16407 0.907171 
43.3931 93.5513 -271.568 13.4392 -86.9645 15.0542 -171.884 0.464732 93.8542 -41.1807 17.3836 -0.0479243 40.0098 -12.9262 -0.464665 40.2466 14.4595 13.4412 178.621 26.976 94.3753 -35.0544 8.73948 1.71445 69.7051 -2.60552 -1.36944 33.8527 0.167035 7.92981 -0.725203 7.70686 -90.379 11.4565 -1.61989 -0.590079 -0.213548 -1.64427 -0.518202 -22.7537 -1.36765 -1.04969 -2.7411 -1.36764 -1.0497 79.5833 -52.5703 -115.491 27.5675 -7.71531 13.4284 -10.5573 -16.6317 -39.5082 -6.89759 -0.777551 7.31009 -102.9 -42.4957 56.5519 -28.9568 9.73238 3.68053 4.6938 8.07536 -36.0023 10.751 0.836328 3.68531 4.91287 2.48055 2.4963 7.86513 2.0609 0.886737 
43.1184 94.0374 -268.221 -21.5911 -87.3398 -19.8145 -171.24 4.8057 94.0331 -47.9469 16.1242 -0.641783 43.269 -10.5192 2.21537 39.5969 13.7062 14.5584 178.91 23.7537 95.0457 -33.9895 7.60696 1.31466 70.8987 -3.03442 -1.57104 34.0501 0.194292 7.8549 -0.485083 7.78301 -90.3565 11.3044 -1.13135 -0.597298 -0.366117 -1.15654 -0.546927 -22.9029 -0.899546 -0.909711 -2.89023 -0.899537 -0.909706 79.8772 -51.9822 -115.294 27.5374 -7.70795 12.514 -9.45065 -14.0291 -41.8086 -5.48644 -0.604994 6.41959 -103.211 -42.7189 56.1818 -28.9556 9.17211 3.96371 4.26695 7.41614 -35.0636 11.7788 0.938237 3.87484 5.18481 2.34809 2.49816 8.13606 1.89503 0.576112 
42.6714 94.6106 -264.94 -34.508 -86.87 -33.5617 -171.26 9.44074 92.827 -51.2479 15.5713 -1.1097 46.018 -8.1904 4.19639 42.833 17.7047 11.8832 179.102 20.9159 94.7524 -32.5814 7.24371 0.692198 72.2881 -3.44799 -1.75117 34.0189 0.178237 8.52595 -0.38998 7.78454 -90.2182 11.3041 -0.87766 -0.346793 -0.36656 -0.892073 -0.307832 -22.9032 -0.732861 -0.594539 -2.89054 -0.73286 -0.594549 79.7378 -51.4707 -115.695 27.3966 -8.16471 11.4643 -7.87687 -14.2045 -41.2702 -6.95869 -0.587856 3.55529 -102.908 -42.8738 56.7179 -29.2857 8.52266 4.27803 4.40463 7.54479 -34.3944 13.0727 1.10489 4.43512 4.99253 2.31047 2.54821 8.37278 1.81951 0.232408 
42.1857 95.2423 -261.334 -42.8864 -86.0202 -42.8084 -171.264 13.245 91.537 -51.1876 15.089 -1.55831 48.7808 -5.78376 5.88853 44.8153 20.1898 11.2356 179.467 17.4852 94.4722 -29.8212 6.8919 -0.131351 73.3549 -3.83406 -1.91617 34.2735 0.191496 10.019 -0.244668 7.73575 -90.0885 11.4021 -0.528067 -0.122923 -0.268687 -0.532966 -0.0995698 -22.8045 -0.466706 -0.275942 -2.79186 -0.46672 -0.275962 80.0131 -51.0807 -115.446 27.5492 -8.2719 10.9977 -10.5755 -15.0485 -44.103 -9.22201 -0.871209 5.54821 -102.945 -43.1262 56.7796 -29.6021 8.36927 4.75715 4.11215 7.30252 -33.6437 13.3318 1.02679 3.71864 4.22686 2.06021 2.96642 9.1348 1.4396 -0.505367 
41.7659 95.7071 -258.087 -62.1571 -85.5586 -62.9476 -171.324 15.5359 90.3474 -48.8202 14.2663 -1.91969 51.237 -3.68013 6.60682 46.7612 23.5078 13.8068 179.485 13.2973 94.004 -27.5233 5.86537 -0.773258 74.2817 -4.16817 -2.04357 32.0076 -0.184395 10.8931 -0.0685323 7.82633 -89.9394 11.2213 -0.108128 0.131262 -0.449656 -0.102237 0.13589 -22.9848 -0.142591 0.0926958 -2.97216 -0.142575 0.0927087 80.064 -50.6744 -115.531 27.5031 -8.33614 10.5177 -9.88493 -13.2457 -46.0579 -8.89127 -0.86256 5.85179 -102.658 -42.9321 57.1269 -30.4314 8.31889 5.41827 4.2447 7.56285 -33.5899 13.5158 1.05719 3.84161 3.94222 1.88925 2.70227 9.03172 1.35741 -0.22032 
